<?xml version="1.0" standalone="no"?>
<!DOCTYPE svg PUBLIC "-//W3C//DTD SVG 20010904//EN"
 "http://www.w3.org/TR/2001/REC-SVG-20010904/DTD/svg10.dtd">
<svg version="1.0" xmlns="http://www.w3.org/2000/svg"
 width="900.000000pt" height="900.000000pt" viewBox="0 0 900.000000 900.000000"
 preserveAspectRatio="xMidYMid meet">
<metadata>
Created by potrace 1.10, written by Peter Selinger 2001-2011
</metadata>
<g transform="translate(0.000000,900.000000) scale(0.100000,-0.100000)"
fill="#000000" stroke="none">
<path d="M4430 7153 c-61 -23 -162 -132 -217 -235 -10 -18 -70 -112 -134 -208
-63 -96 -137 -210 -165 -253 -92 -145 -194 -302 -225 -347 -28 -42 -164 -251
-214 -330 -12 -19 -56 -87 -97 -150 -91 -138 -158 -276 -158 -326 0 -64 83
-160 160 -183 53 -16 143 -6 199 22 52 25 144 115 181 176 30 51 46 74 204
316 117 178 202 308 381 585 77 120 129 180 156 180 16 0 79 -59 79 -75 0 -4
23 -41 50 -82 28 -40 50 -76 50 -79 0 -3 33 -54 73 -114 39 -60 94 -144 121
-187 28 -43 102 -157 165 -253 63 -96 123 -190 133 -208 62 -111 172 -233 243
-266 41 -20 156 -24 207 -7 43 14 124 97 134 137 19 77 -64 245 -256 519 -18
25 -40 59 -115 174 -54 84 -187 290 -223 346 -24 39 -66 103 -93 143 -27 40
-49 76 -49 79 0 3 -11 21 -25 39 -14 18 -25 35 -25 38 0 8 -45 72 -64 91 -9 9
-16 21 -16 26 0 10 -71 121 -109 170 -12 15 -24 35 -28 45 -16 42 -107 152
-155 187 -44 32 -58 37 -102 36 -28 0 -58 -3 -66 -6z m94 -65 c25 -12 95 -110
261 -368 123 -190 165 -255 233 -360 126 -193 203 -312 249 -382 23 -38 64
-101 90 -140 25 -40 78 -122 118 -183 213 -326 221 -341 211 -379 -3 -14 -21
-35 -39 -48 -26 -19 -45 -23 -102 -23 -94 0 -140 21 -185 86 -19 27 -41 56
-47 64 -7 7 -13 16 -13 20 0 3 -8 18 -19 33 -25 36 -175 267 -239 367 -28 44
-55 85 -59 90 -5 6 -26 39 -48 75 -22 36 -43 70 -48 75 -7 9 -96 146 -188 290
-21 33 -42 65 -46 70 -5 6 -26 38 -46 72 -39 64 -88 113 -112 113 -25 0 -80
-57 -120 -122 -21 -35 -72 -115 -113 -178 -119 -183 -175 -269 -230 -355 -29
-44 -56 -87 -62 -95 -6 -8 -32 -49 -59 -90 -179 -276 -220 -339 -241 -375 -54
-89 -102 -127 -178 -140 -72 -12 -142 3 -174 37 -15 17 -28 38 -28 49 0 17 29
89 40 99 4 3 28 39 55 80 26 41 81 125 120 185 40 61 92 142 117 180 24 39 67
104 94 145 27 41 51 79 54 85 3 5 45 71 94 145 88 134 159 243 243 373 347
540 345 537 417 505z"/>
<path d="M5864 4841 c-50 -7 -103 -42 -135 -89 -32 -48 -33 -129 -1 -192 34
-68 105 -185 172 -286 8 -13 42 -65 74 -116 33 -51 70 -106 83 -121 13 -16 23
-33 23 -39 0 -6 35 -63 78 -126 42 -63 86 -129 97 -148 12 -18 27 -41 35 -51
8 -10 21 -29 29 -43 39 -66 78 -128 99 -154 12 -16 22 -33 22 -38 0 -5 24 -44
53 -86 59 -85 117 -184 117 -199 0 -28 -58 -33 -373 -33 -307 0 -387 6 -410
29 -5 5 -13 90 -17 188 -4 98 -10 185 -13 193 -3 8 -8 27 -11 41 -7 34 -57 95
-108 133 -36 26 -49 30 -107 30 -55 0 -73 -5 -107 -27 -45 -31 -80 -73 -106
-130 -15 -34 -18 -79 -18 -392 -1 -333 0 -355 18 -392 29 -55 112 -129 160
-143 28 -7 293 -10 869 -8 l828 3 35 22 c99 61 134 163 91 263 -20 46 -103
190 -150 258 -10 15 -47 72 -83 127 -35 55 -73 113 -84 129 -22 33 -60 91 -88
132 -11 16 -42 65 -69 109 -28 44 -75 117 -106 163 -31 46 -65 99 -76 117 -12
19 -28 42 -36 52 -9 10 -39 59 -69 108 -29 50 -56 92 -60 95 -4 3 -15 19 -24
35 -9 17 -28 46 -41 65 -57 82 -68 99 -121 185 -102 165 -200 283 -264 315
-39 20 -144 31 -206 21z m176 -99 c15 -10 38 -31 52 -47 23 -28 97 -138 108
-160 3 -6 26 -42 51 -80 44 -67 103 -158 248 -383 36 -56 120 -184 185 -285
65 -100 133 -204 151 -232 18 -27 57 -88 87 -135 30 -47 76 -119 103 -160 27
-41 95 -146 152 -232 57 -87 106 -171 109 -187 5 -22 0 -36 -24 -62 l-30 -34
-865 0 -865 0 -26 24 c-14 14 -30 41 -36 60 -13 45 -13 685 -1 728 23 81 118
118 200 77 63 -32 65 -41 71 -327 5 -241 6 -260 24 -273 17 -12 103 -14 509
-14 317 0 495 4 508 10 13 8 19 21 19 48 0 28 -14 58 -63 132 -93 139 -199
301 -354 543 -25 39 -79 122 -118 182 -236 361 -299 458 -305 470 -3 6 -31 49
-62 96 -80 121 -101 165 -94 193 7 28 49 61 86 69 43 9 151 -4 180 -21z"/>
<path d="M2909 4820 c-47 -25 -121 -106 -190 -211 -154 -230 -255 -386 -261
-402 -4 -9 -32 -52 -61 -95 -30 -42 -66 -99 -81 -127 -16 -27 -34 -57 -41 -65
-13 -14 -108 -158 -268 -405 -35 -55 -95 -147 -133 -205 -38 -58 -73 -112 -79
-121 -5 -9 -30 -49 -55 -88 -91 -145 -110 -190 -110 -257 0 -55 4 -66 35 -108
62 -80 57 -79 435 -88 184 -5 565 -7 845 -6 l510 3 46 27 c54 32 95 77 120
133 17 36 19 71 18 360 0 176 -4 342 -8 368 -9 55 -49 116 -104 161 -36 29
-45 31 -116 31 -69 0 -82 -3 -113 -27 -20 -15 -53 -51 -74 -79 l-38 -52 -4
-189 c-4 -172 -7 -192 -26 -221 -13 -19 -33 -34 -51 -37 -17 -4 -162 -7 -323
-9 -323 -2 -402 6 -402 42 0 22 59 133 97 183 12 17 23 35 23 41 0 5 9 18 20
28 11 10 20 21 20 26 0 7 59 99 86 134 9 11 24 36 35 55 11 19 30 49 42 67 12
17 76 116 142 218 66 103 167 259 225 348 180 276 199 311 207 384 8 69 -1 96
-43 143 -44 49 -82 60 -199 60 -69 -1 -99 -5 -126 -20z m273 -81 c23 -17 28
-28 28 -62 0 -37 -12 -61 -85 -172 -47 -72 -104 -159 -127 -195 -23 -36 -68
-105 -100 -153 -32 -49 -58 -90 -58 -92 0 -1 -34 -53 -75 -114 -41 -62 -75
-114 -75 -116 0 -2 -20 -32 -43 -67 -24 -35 -46 -68 -48 -73 -2 -6 -31 -50
-63 -100 -33 -49 -97 -148 -144 -220 -46 -71 -96 -147 -111 -168 -35 -52 -71
-118 -71 -131 1 -6 9 -21 19 -33 l19 -23 495 0 c447 0 496 2 508 17 11 12 15
76 19 272 6 284 8 293 71 325 66 33 159 10 191 -46 17 -30 25 -704 9 -759 -6
-19 -22 -46 -37 -60 l-26 -24 -865 0 -865 0 -29 33 c-16 18 -29 39 -29 48 0
22 24 67 105 189 39 61 107 164 150 230 43 66 86 132 96 147 11 15 19 30 19
33 0 3 5 11 10 18 11 12 136 203 142 215 2 4 34 54 72 112 38 58 88 134 111
170 140 218 282 437 306 472 11 15 19 30 19 33 0 3 5 11 10 18 6 7 40 56 76
111 123 187 141 200 283 190 43 -3 74 -12 93 -25z"/>
<path d="M4376 4810 c-37 -27 -74 -69 -97 -110 -11 -20 -15 -179 -22 -865 -8
-858 -7 -954 14 -1015 18 -51 87 -130 134 -151 109 -50 230 3 291 126 l26 54
-1 890 c-2 967 0 930 -57 1013 -14 20 -43 48 -65 63 -35 23 -48 25 -114 23
-60 -2 -80 -8 -109 -28z m167 -54 c18 -7 43 -26 57 -41 l25 -27 3 -896 c2
-493 0 -916 -3 -940 -4 -27 -17 -55 -35 -75 -27 -30 -32 -32 -100 -32 -68 0
-73 2 -100 32 -18 20 -31 48 -35 75 -3 24 -5 447 -3 940 l3 896 25 27 c47 51
105 66 163 41z"/>
<path d="M3177 2501 c-62 -25 -112 -63 -143 -111 -46 -69 -54 -125 -54 -375 0
-252 5 -276 65 -339 25 -26 33 -28 80 -24 67 6 104 40 130 118 10 30 22 61 28
68 7 9 85 12 350 10 290 -3 341 -5 348 -18 4 -8 15 -37 25 -65 25 -72 71 -115
123 -115 51 0 79 14 111 53 l25 31 3 274 c4 324 1 340 -81 419 -94 92 -65 87
-542 90 -395 3 -423 2 -468 -16z m906 -71 c56 -25 102 -78 115 -134 6 -22 12
-165 13 -316 l3 -275 -72 -3 c-53 -2 -72 0 -73 10 -1 7 -1 60 1 118 l2 105
-442 -2 c-243 -1 -444 -4 -446 -6 -3 -2 1 -48 7 -101 6 -52 9 -103 5 -111 -7
-20 -146 -22 -147 -2 0 6 0 139 1 294 1 310 5 329 67 383 67 59 62 59 509 59
392 1 414 0 457 -19z"/>
<path d="M3208 2288 c-10 -10 -18 -21 -18 -25 0 -5 -1 -51 -3 -103 l-2 -95
444 0 445 0 -3 105 c-2 70 -7 109 -16 118 -10 11 -94 14 -421 15 -377 2 -410
1 -426 -15z m732 -67 c36 -10 42 -66 8 -75 -13 -3 -163 -6 -335 -6 -306 0
-313 0 -323 21 -9 16 -8 26 5 45 l15 24 303 -1 c166 -1 313 -4 327 -8z"/>
<path d="M4687 2511 c-47 -10 -114 -72 -128 -121 -7 -22 -9 -146 -7 -332 l3
-296 30 -43 c58 -82 38 -79 575 -78 337 0 484 4 507 12 54 20 132 88 156 137
20 42 22 60 23 279 2 206 0 239 -16 276 -25 59 -75 112 -134 143 l-51 27 -460
2 c-253 1 -477 -2 -498 -6z m980 -82 c24 -11 60 -41 81 -67 36 -44 37 -47 37
-131 0 -75 -3 -90 -22 -115 -13 -16 -23 -34 -23 -40 0 -7 10 -23 23 -36 19
-22 22 -35 22 -115 0 -66 -4 -95 -15 -108 -42 -51 -85 -85 -119 -95 -47 -15
-956 -17 -993 -3 -14 5 -29 18 -33 28 -4 10 -8 160 -9 333 l-1 314 23 28 24
28 481 0 c467 0 482 -1 524 -21z"/>
<path d="M4759 2305 c-1 0 -3 -35 -4 -77 -2 -54 0 -78 8 -78 7 -1 203 -1 437
0 419 0 425 1 443 21 23 29 22 91 -2 113 -18 17 -202 21 -882 21z"/>
<path d="M4756 2005 c-10 -27 -7 -143 4 -150 6 -3 202 -6 438 -5 l427 0 17 23
c24 31 23 92 -2 117 -19 19 -33 20 -412 20 -216 0 -409 3 -429 6 -28 5 -37 2
-43 -11z"/>
<path d="M6339 2510 c-88 -15 -173 -89 -209 -180 -41 -102 -14 -227 66 -306
19 -19 42 -46 51 -61 17 -25 17 -27 -1 -37 -105 -61 -138 -143 -87 -215 51
-70 15 -66 510 -69 296 -2 463 0 496 7 68 15 140 72 179 141 28 50 31 63 31
140 -1 100 -11 124 -92 220 l-55 64 23 16 c55 35 99 83 104 113 9 48 -15 106
-58 141 l-39 31 -436 2 c-241 1 -458 -2 -483 -7z m971 -136 l0 -75 -486 2
c-363 1 -488 -1 -497 -10 -18 -18 -15 -120 3 -131 9 -6 179 -10 411 -10 372 0
399 -1 440 -20 50 -22 86 -52 114 -95 15 -23 19 -48 19 -105 0 -64 -4 -81 -26
-116 -33 -52 -72 -80 -129 -93 -27 -7 -224 -12 -502 -13 -523 -3 -471 -13
-465 91 l3 53 476 -1 477 -2 21 27 c26 33 27 71 1 104 l-19 25 -398 1 c-298 0
-408 4 -438 13 -50 16 -112 75 -120 112 -4 16 -11 31 -16 34 -16 11 -10 109
10 151 25 52 76 101 112 109 16 4 31 11 34 16 4 5 205 9 491 9 l484 0 0 -76z"/>
<path d="M1695 2491 c-72 -44 -70 -33 -73 -347 -3 -263 -2 -287 16 -327 25
-57 85 -123 136 -150 40 -21 53 -22 416 -25 252 -2 387 0 412 8 21 6 51 25 68
43 26 28 30 40 30 88 0 49 -3 58 -33 87 -18 18 -49 37 -68 42 -19 6 -164 10
-325 10 -307 0 -351 6 -369 47 -4 10 -11 113 -14 228 -4 131 -11 218 -18 231
-7 12 -28 35 -48 53 -42 36 -85 40 -130 12z m126 -319 c-3 -261 -2 -285 15
-303 17 -19 31 -20 409 -19 214 1 396 1 403 1 14 -1 17 -108 3 -130 -7 -11
-76 -13 -397 -12 -231 1 -405 6 -429 12 -51 14 -122 86 -129 132 -3 17 -7 159
-8 314 -3 246 -1 283 12 285 8 2 40 3 70 3 l55 0 -4 -283z"/>
</g>
</svg>
